# Blender v3.2.2 OBJ File: ''
# www.blender.org
mtllib frame.mtl
o Cube
v 20.432318 -20.628454 4.305920
v 20.432314 0.452699 0.830878
v 26.838839 -23.937340 1.341037
v 26.838833 2.634908 -3.039164
v -22.579842 -26.321989 -30.233547
v -22.579845 -5.240836 -33.708588
v -20.489697 -30.202234 -36.664547
v -20.489700 -3.629986 -41.044746
v 22.590498 3.483925 2.111356
v -24.738033 -2.780968 -35.894226
v 22.590502 -23.088324 6.491556
v -24.738029 -29.353218 -31.514027
v 22.590498 3.483925 2.111356
v -24.738033 -2.780968 -35.894226
v 22.590502 -23.088324 6.491556
v -24.738029 -29.353218 -31.514027
v 22.590498 3.483925 2.111356
v -24.738033 -2.780968 -35.894226
v 22.590502 -23.088324 6.491556
v -24.738029 -29.353218 -31.514027
v 22.590498 3.483925 2.111356
v -24.738033 -2.780968 -35.894226
v 22.590502 -23.088324 6.491556
v -24.738029 -29.353218 -31.514027
v 22.590498 3.483925 2.111356
v -24.738033 -2.780968 -35.894226
v 22.590502 -23.088324 6.491556
v -24.738029 -29.353218 -31.514027
v 22.590498 3.483925 2.111356
v -24.738033 -2.780968 -35.894226
v 22.590502 -23.088324 6.491556
v -24.738029 -29.353218 -31.514027
v 22.590498 3.483925 2.111356
v -24.738033 -2.780968 -35.894226
v 22.590502 -23.088324 6.491556
v -24.738029 -29.353218 -31.514027
v 22.590498 3.483925 2.111356
v -24.738033 -2.780968 -35.894226
v 22.590502 -23.088324 6.491556
v -24.738029 -29.353218 -31.514027
v 22.590498 3.483925 2.111356
v -24.738033 -2.780968 -35.894226
v 22.590502 -23.088324 6.491556
v -24.738029 -29.353218 -31.514027
v 22.590498 3.483925 2.111356
v -24.738033 -2.780968 -35.894226
v 22.590502 -23.088324 6.491556
v -24.738029 -29.353218 -31.514027
v 22.590498 3.483925 2.111356
v -24.738033 -2.780968 -35.894226
v 22.590502 -23.088324 6.491556
v -24.738029 -29.353218 -31.514027
v 22.590498 3.483925 2.111356
v -24.738033 -2.780968 -35.894226
v 22.590502 -23.088324 6.491556
v -24.738029 -29.353218 -31.514027
v 23.743294 -0.208991 -3.183228
v -19.268867 -5.902525 -37.722694
v 23.743299 -21.290144 0.291814
v -19.268864 -26.983679 -34.247654
v 22.513447 0.036791 -1.692208
v -20.498714 -5.656744 -36.231674
v 22.513451 -21.044363 1.782834
v -20.498711 -26.737898 -32.756634
vt 1.000000 0.513497
vt 0.000000 0.513497
vt 0.000000 0.403203
vt 1.000000 0.403203
vt 1.000000 0.279334
vt 1.000000 0.720666
vt 0.000000 0.720666
vt 0.000000 0.279334
vt 0.403203 0.279334
vt 0.403203 0.720666
vt 0.513497 0.720666
vt 0.513497 0.279334
vt 0.000000 0.513497
vt 1.000000 0.513497
vt 1.000000 0.403203
vt 0.000000 0.403203
vt 0.513497 0.279334
vt 0.513497 0.720666
vt 0.403203 0.720666
vt 0.403203 0.279334
vt 0.513497 0.324934
vt 0.513497 0.675066
vt 0.427539 0.675066
vt 0.427539 0.324934
vt 0.000000 0.513497
vt 1.000000 0.513497
vt 1.000000 0.513497
vt 0.000000 0.513497
vt 0.000000 0.513497
vt 1.000000 0.513497
vt 1.000000 0.513497
vt 0.000000 0.513497
vt 0.000000 0.513497
vt 1.000000 0.513497
vt 1.000000 0.513497
vt 0.000000 0.513497
vt 0.000000 0.513497
vt 1.000000 0.513497
vt 1.000000 0.513497
vt 0.000000 0.513497
vt 0.000000 0.513497
vt 1.000000 0.513497
vt 1.000000 0.513497
vt 0.000000 0.513497
vt 0.000000 0.513497
vt 1.000000 0.513497
vt 1.000000 0.513497
vt 0.000000 0.513497
vt 0.000000 0.513497
vt 1.000000 0.513497
vt 1.000000 0.513497
vt 0.000000 0.513497
vt 0.000000 0.513497
vt 1.000000 0.513497
vt 1.000000 0.513497
vt 0.000000 0.513497
vt 0.000000 0.513497
vt 1.000000 0.513497
vt 1.000000 0.513497
vt 0.000000 0.513497
vt 0.000000 0.513497
vt 1.000000 0.513497
vt 1.000000 0.513497
vt 0.000000 0.513497
vt 0.000000 0.513497
vt 1.000000 0.513497
vt 1.000000 0.513497
vt 0.000000 0.513497
vt 0.045600 0.324934
vt 0.954400 0.324934
vt 1.000000 0.279334
vt 0.000000 0.279334
vt 0.954400 0.675066
vt 1.000000 0.720666
vt 0.045600 0.675066
vt 0.000000 0.720666
vt 0.045600 0.427539
vt 0.954400 0.427539
vt 0.954400 0.459467
vt 0.045600 0.459467
vt 0.954400 0.513497
vt 0.045600 0.513497
vt 0.045600 0.427539
vt 0.954400 0.427539
vt 0.045600 0.513497
vt 0.954400 0.513497
vt 0.513497 0.675066
vt 0.513497 0.324934
vt 0.427539 0.324934
vt 0.427539 0.675066
vt 0.045600 0.324934
vt 0.045600 0.675066
vt 0.954400 0.675066
vt 0.954400 0.324934
vt 0.459467 0.324934
vt 0.459467 0.675066
vt 0.459467 0.675066
vt 0.459467 0.324934
vt 0.045600 0.459467
vt 0.954400 0.459467
vn 0.0000 -0.9867 0.1626
vn 0.6312 -0.1261 -0.7653
vn -0.7756 -0.1027 -0.6228
vn -0.0000 0.9867 -0.1626
vn 0.7756 0.1027 0.6228
vn 0.0000 0.0000 1.0000
vn -0.6312 0.1261 0.7653
usemtl Material
s off
f 11/1/1 12/2/1 7/3/1 3/4/1
f 4/5/2 3/6/2 7/7/2 8/8/2
f 8/9/3 7/10/3 12/11/3 10/12/3
f 10/13/4 9/14/4 4/15/4 8/16/4
f 9/17/5 11/18/5 3/19/5 4/20/5
f 6/21/5 5/22/5 60/23/5 58/24/5
f 14/25/6 13/26/6 9/14/6 10/13/6
f 13/26/6 15/27/6 11/1/6 9/14/6
f 16/28/6 14/25/6 10/13/6 12/2/6
f 15/27/6 16/28/6 12/2/6 11/1/6
f 18/29/6 17/30/6 13/26/6 14/25/6
f 17/30/6 19/31/6 15/27/6 13/26/6
f 20/32/6 18/29/6 14/25/6 16/28/6
f 19/31/6 20/32/6 16/28/6 15/27/6
f 22/33/6 21/34/6 17/30/6 18/29/6
f 21/34/6 23/35/6 19/31/6 17/30/6
f 24/36/6 22/33/6 18/29/6 20/32/6
f 23/35/6 24/36/6 20/32/6 19/31/6
f 26/37/6 25/38/6 21/34/6 22/33/6
f 25/38/6 27/39/6 23/35/6 21/34/6
f 28/40/6 26/37/6 22/33/6 24/36/6
f 27/39/6 28/40/6 24/36/6 23/35/6
f 30/41/6 29/42/6 25/38/6 26/37/6
f 29/42/6 31/43/6 27/39/6 25/38/6
f 32/44/6 30/41/6 26/37/6 28/40/6
f 31/43/6 32/44/6 28/40/6 27/39/6
f 34/45/6 33/46/6 29/42/6 30/41/6
f 33/46/6 35/47/6 31/43/6 29/42/6
f 36/48/6 34/45/6 30/41/6 32/44/6
f 35/47/6 36/48/6 32/44/6 31/43/6
f 38/49/6 37/50/6 33/46/6 34/45/6
f 37/50/6 39/51/6 35/47/6 33/46/6
f 40/52/6 38/49/6 34/45/6 36/48/6
f 39/51/6 40/52/6 36/48/6 35/47/6
f 42/53/6 41/54/6 37/50/6 38/49/6
f 41/54/6 43/55/6 39/51/6 37/50/6
f 44/56/6 42/53/6 38/49/6 40/52/6
f 43/55/6 44/56/6 40/52/6 39/51/6
f 46/57/6 45/58/6 41/54/6 42/53/6
f 45/58/6 47/59/6 43/55/6 41/54/6
f 48/60/6 46/57/6 42/53/6 44/56/6
f 47/59/6 48/60/6 44/56/6 43/55/6
f 50/61/6 49/62/6 45/58/6 46/57/6
f 49/62/6 51/63/6 47/59/6 45/58/6
f 52/64/6 50/61/6 46/57/6 48/60/6
f 51/63/6 52/64/6 48/60/6 47/59/6
f 54/65/6 53/66/6 49/62/6 50/61/6
f 53/66/6 55/67/6 51/63/6 49/62/6
f 56/68/6 54/65/6 50/61/6 52/64/6
f 55/67/6 56/68/6 52/64/6 51/63/6
f 6/69/7 2/70/7 53/71/7 54/72/7
f 2/70/7 1/73/7 55/74/7 53/71/7
f 5/75/7 6/69/7 54/72/7 56/76/7
f 1/73/7 5/75/7 56/76/7 55/74/7
f 60/77/1 59/78/1 63/79/1 64/80/1
f 2/81/1 6/82/1 58/83/1 57/84/1
f 5/85/4 1/86/4 59/78/4 60/77/4
f 1/87/3 2/88/3 57/89/3 59/90/3
f 62/91/7 64/92/7 63/93/7 61/94/7
f 59/90/5 57/89/5 61/95/5 63/96/5
f 58/24/3 60/23/3 64/97/3 62/98/3
f 57/84/4 58/83/4 62/99/4 61/100/4
